<mxfile host="65bd71144e">
    <diagram id="wBrmlLVyGoueniPOxYUC" name="Page-1">
        <mxGraphModel dx="2967" dy="2106" grid="1" gridSize="10" guides="1" tooltips="1" connect="1" arrows="1" fold="1" page="1" pageScale="1" pageWidth="827" pageHeight="1169" background="none" math="0" shadow="0">
            <root>
                <mxCell id="0"/>
                <mxCell id="1" parent="0"/>
                <mxCell id="5" value="Back-end" style="swimlane;whiteSpace=wrap;html=1;" parent="1" vertex="1">
                    <mxGeometry x="-980" y="-670" width="1110" height="480" as="geometry"/>
                </mxCell>
                <mxCell id="2" value="Recebe request" style="ellipse;whiteSpace=wrap;html=1;aspect=fixed;fillColor=#60a917;fontColor=#ffffff;strokeColor=#2D7600;" parent="5" vertex="1">
                    <mxGeometry x="80" y="95" width="70" height="70" as="geometry"/>
                </mxCell>
                <mxCell id="7" value="" style="edgeStyle=none;html=1;" parent="5" source="3" target="6" edge="1">
                    <mxGeometry relative="1" as="geometry"/>
                </mxCell>
                <mxCell id="3" value="Recupera os arquivos da request" style="whiteSpace=wrap;html=1;" parent="5" vertex="1">
                    <mxGeometry x="240" y="100" width="120" height="60" as="geometry"/>
                </mxCell>
                <mxCell id="4" value="" style="edgeStyle=none;html=1;" parent="5" source="2" target="3" edge="1">
                    <mxGeometry relative="1" as="geometry"/>
                </mxCell>
                <mxCell id="56" style="edgeStyle=none;html=1;entryX=0;entryY=0.5;entryDx=0;entryDy=0;" edge="1" parent="5" source="6" target="55">
                    <mxGeometry relative="1" as="geometry"/>
                </mxCell>
                <mxCell id="6" value="Cria um hash dos documentos com os seus tamanhos" style="whiteSpace=wrap;html=1;" parent="5" vertex="1">
                    <mxGeometry x="450" y="100" width="120" height="60" as="geometry"/>
                </mxCell>
                <mxCell id="40" value="" style="edgeStyle=none;html=1;" edge="1" parent="5" source="8" target="39">
                    <mxGeometry relative="1" as="geometry"/>
                </mxCell>
                <mxCell id="8" value="Cria um UUID para o documento de resultado" style="whiteSpace=wrap;html=1;" parent="5" vertex="1">
                    <mxGeometry x="920" y="347.5" width="120" height="60" as="geometry"/>
                </mxCell>
                <mxCell id="42" value="" style="edgeStyle=none;html=1;" edge="1" parent="5" source="39" target="41">
                    <mxGeometry relative="1" as="geometry"/>
                </mxCell>
                <mxCell id="39" value="Salva os documentos no banco relacionando com o UUID" style="whiteSpace=wrap;html=1;" vertex="1" parent="5">
                    <mxGeometry x="650" y="347.5" width="120" height="60" as="geometry"/>
                </mxCell>
                <mxCell id="44" value="" style="edgeStyle=none;html=1;" edge="1" parent="5" source="41" target="43">
                    <mxGeometry relative="1" as="geometry"/>
                </mxCell>
                <mxCell id="41" value="Salva o Hash no banco de dados" style="whiteSpace=wrap;html=1;" vertex="1" parent="5">
                    <mxGeometry x="470" y="347.5" width="120" height="60" as="geometry"/>
                </mxCell>
                <mxCell id="46" value="" style="edgeStyle=none;html=1;" edge="1" parent="5" source="43" target="45">
                    <mxGeometry relative="1" as="geometry"/>
                </mxCell>
                <mxCell id="43" value="Monta o modelo de fila, para processar os arquivos" style="whiteSpace=wrap;html=1;" vertex="1" parent="5">
                    <mxGeometry x="270" y="347.5" width="140" height="65" as="geometry"/>
                </mxCell>
                <mxCell id="62" style="edgeStyle=none;html=1;entryX=0;entryY=0.5;entryDx=0;entryDy=0;" edge="1" parent="5" source="45" target="47">
                    <mxGeometry relative="1" as="geometry">
                        <Array as="points">
                            <mxPoint x="135" y="275"/>
                        </Array>
                    </mxGeometry>
                </mxCell>
                <mxCell id="45" value="Adiciona o modelo na fila, com os UUID's dos arquivos que devem ser trabalhados" style="whiteSpace=wrap;html=1;" vertex="1" parent="5">
                    <mxGeometry x="60" y="335" width="150" height="85" as="geometry"/>
                </mxCell>
                <mxCell id="50" value="" style="edgeStyle=none;html=1;" edge="1" parent="5" source="47" target="49">
                    <mxGeometry relative="1" as="geometry"/>
                </mxCell>
                <mxCell id="47" value="Retorna o UUID do arquivo de resultado" style="whiteSpace=wrap;html=1;" vertex="1" parent="5">
                    <mxGeometry x="650" y="251" width="120" height="60" as="geometry"/>
                </mxCell>
                <mxCell id="49" value="Fim" style="ellipse;whiteSpace=wrap;html=1;fillColor=#a20025;fontColor=#ffffff;strokeColor=#6F0000;" vertex="1" parent="5">
                    <mxGeometry x="820" y="241" width="80" height="80" as="geometry"/>
                </mxCell>
                <mxCell id="57" style="edgeStyle=none;html=1;entryX=0.5;entryY=0;entryDx=0;entryDy=0;" edge="1" parent="5" source="55" target="8">
                    <mxGeometry relative="1" as="geometry">
                        <Array as="points">
                            <mxPoint x="980" y="130"/>
                        </Array>
                    </mxGeometry>
                </mxCell>
                <mxCell id="58" value="NÃ£o" style="edgeLabel;html=1;align=center;verticalAlign=middle;resizable=0;points=[];" vertex="1" connectable="0" parent="57">
                    <mxGeometry x="-0.6938" y="1" relative="1" as="geometry">
                        <mxPoint as="offset"/>
                    </mxGeometry>
                </mxCell>
                <mxCell id="60" style="edgeStyle=none;html=1;entryX=0.5;entryY=0;entryDx=0;entryDy=0;" edge="1" parent="5" source="55" target="47">
                    <mxGeometry relative="1" as="geometry"/>
                </mxCell>
                <mxCell id="61" value="Sim" style="edgeLabel;html=1;align=center;verticalAlign=middle;resizable=0;points=[];" vertex="1" connectable="0" parent="60">
                    <mxGeometry x="0.4186" y="2" relative="1" as="geometry">
                        <mxPoint x="-2" y="-11" as="offset"/>
                    </mxGeometry>
                </mxCell>
                <mxCell id="55" value="Esse hash existe no banco?" style="rhombus;whiteSpace=wrap;html=1;" vertex="1" parent="5">
                    <mxGeometry x="640" y="60" width="140" height="140" as="geometry"/>
                </mxCell>
            </root>
        </mxGraphModel>
    </diagram>
</mxfile>